
nColumns=19
nRows=31
DataType=double
version=3
OpenSimVersion=4.4-2022-10-11-798caa840
endheader
time	ground_force_calcn_r_vx	ground_force_calcn_r_vy	ground_force_calcn_r_vz	ground_force_calcn_r_px	ground_force_calcn_r_py	ground_force_calcn_r_pz	ground_force_calcn_r_mx	ground_force_calcn_r_my	ground_force_calcn_r_mz	ground_force_calcn_l_vx	ground_force_calcn_l_vy	ground_force_calcn_l_vz	ground_force_calcn_l_px	ground_force_calcn_l_py	ground_force_calcn_l_pz	ground_force_calcn_l_mx	ground_force_calcn_l_my	ground_force_calcn_l_mz
1.16	0	0	0	0	0	0	0	0	0	-105.681	144.123	27.2303	-0.180657	0	-0.852094	0.0709528	-0.0967624	-0.0182821
1.17	-16.1453	34.5895	9.880979999999999	-0.177311	0	-0.300165	-0.026179	0.0560856	0.0160217	-368.403	515.395	122.834	-0.187132	0	-0.8541800000000001	-0.110773	0.154971	0.0369342
1.18	-196.757	291.189	3.57704	-0.166174	0	-0.287827	0.391916	-0.580014	-0.00712505	-335.067	499.371	108.639	-0.184752	0	-0.852205	-0.374528	0.558181	0.121433
1.19	-343.994	461.021	-57.7632	-0.162598	0	-0.279968	0.9375019999999999	-1.25644	0.157424	-130.009	418.506	16.0415	-0.20564	0	-0.841048	-0.739907	2.3818	0.091295
1.2	-212.622	548.1660000000001	-61.9319	-0.197112	0	-0.278579	1.13288	-2.92071	0.329982	-98.3775	810.9160000000001	67.21850000000001	-0.284089	0	-0.823688	-0.0932986	0.769051	0.0637482
1.21	-66.3852	963.702	-101.771	-0.262482	0	-0.281771	0.318026	-4.61673	0.487545	63.1831	1506.06	151.105	-0.330963	0	-0.813819	-0.108411	-2.58413	-0.25927
1.22	45.3841	1381.4	-202.406	-0.288467	0	-0.279985	-0.108476	-3.30178	0.483786	111.531	1417.07	167.935	-0.33441	0	-0.814576	-0.207281	-2.63362	-0.312108
1.23	-33.7247	1135.23	-210.336	-0.275246	0	-0.275888	0.0177324	-0.596903	0.110594	-154.794	847.068	155.272	-0.289825	0	-0.82597	0.556534	-3.04549	-0.558253
1.24	-228.767	759.014	-153.381	-0.229658	0	-0.272282	-0.06811490000000001	0.225994	-0.0456686	-297.842	581.504	132.66	-0.234744	0	-0.838659	0.540185	-1.05465	-0.2406
1.25	-285.273	587.101	-108.837	-0.195966	0	-0.270445	0.962512	-1.98088	0.367215	-283.794	542.728	118.779	-0.22583	0	-0.842251	-0.298906	0.5716290000000001	0.125104
1.26	-261.789	549.526	-81.607	-0.190659	0	-0.270191	2.31317	-4.85562	0.7210800000000001	-218.07	553.057	114.623	-0.234256	0	-0.8421419999999999	-0.479912	1.21713	0.252255
1.27	-226.428	570.9109999999999	-73.7013	-0.195399	0	-0.269948	3.0985	-7.81249	1.00855	-156.593	602.272	120.886	-0.245255	0	-0.841237	-0.280539	1.07898	0.216568
1.28	-197.71	646.085	-83.4194	-0.203361	0	-0.269462	3.17606	-10.3788	1.34007	-99.1023	703.496	132.437	-0.258736	0	-0.838545	-0.06717620000000001	0.476863	0.08977209999999999
1.29	-163.831	763.631	-109.858	-0.212982	0	-0.26908	2.39486	-11.1626	1.60589	-41.2902	828.25	142.513	-0.270854	0	-0.83508	0.00535778	-0.107473	-0.0184924
1.3	-115.439	864.774	-146.352	-0.220326	0	-0.267621	1.27774	-9.571719999999999	1.61989	-7.40675	882.204	148.497	-0.273476	0	-0.834103	0.00583376	-0.694848	-0.11696
1.31	-83.3677	894.253	-173.106	-0.221635	0	-0.264767	0.653312	-7.00783	1.35655	-28.1873	838.468	149.127	-0.26491	0	-0.835943	0.0301159	-0.895838	-0.15933
1.32	-88.4722	847.391	-172.443	-0.216897	0	-0.261849	0.611825	-5.86009	1.19252	-66.3265	753.385	137.663	-0.251987	0	-0.838176	0.0104975	-0.119239	-0.021788
1.33	-112.402	766.919	-152.804	-0.209623	0	-0.259827	0.954763	-6.51436	1.29795	-87.46559999999999	682.596	120.537	-0.242213	0	-0.839035	-0.134324	1.04828	0.185112
1.34	-127.291	701.15	-133.794	-0.204467	0	-0.2585	1.40261	-7.72594	1.47427	-93.4276	634.741	108.542	-0.236554	0	-0.838898	-0.267882	1.81997	0.311219
1.35	-126.963	671.351	-126.001	-0.203197	0	-0.257351	1.61503	-8.539859999999999	1.60278	-93.331	610.828	104.231	-0.233599	0	-0.838449	-0.349768	2.28914	0.390618
1.36	-117.441	680.591	-129.008	-0.205128	0	-0.256442	1.54015	-8.92543	1.69184	-89.9144	617.87	103.589	-0.233699	0	-0.837517	-0.445574	3.06187	0.513339
1.37	-102.987	718.336	-137.225	-0.209034	0	-0.255873	1.33791	-9.33197	1.7827	-80.0342	650.228	102.434	-0.237057	0	-0.835646	-0.554	4.50091	0.709053
1.38	-86.1763	765.422	-144.693	-0.213347	0	-0.255726	1.12827	-10.0214	1.89441	-64.0086	694.348	99.83329999999999	-0.242092	0	-0.8329839999999999	-0.599486	6.50307	0.93501
1.39	-73.9743	805.2140000000001	-148.648	-0.21677	0	-0.255961	1.00276	-10.915	2.015	-46.3572	740.058	94.72	-0.247994	0	-0.829695	-0.561404	8.962389999999999	1.1471
1.4	-69.4756	825.248	-149.551	-0.218859	0	-0.256167	0.99057	-11.7662	2.13226	-32.0878	770.5599999999999	91.1525	-0.252574	0	-0.826735	-0.450214	10.8115	1.27893
1.41	-69.1281	825.196	-149.924	-0.219757	0	-0.256121	1.03621	-12.3695	2.24733	-32.0682	775.778	95.98569999999999	-0.253554	0	-0.8258219999999999	-0.46057	11.1419	1.37857
1.42	-69.3736	820.362	-152.122	-0.22014	0	-0.255918	1.0776	-12.7429	2.36296	-41.1246	768.753	102.65	-0.252436	0	-0.825847	-0.578172	10.8079	1.44316
1.43	-66.8965	825.312	-154.78	-0.220841	0	-0.255966	1.07208	-13.2264	2.48049	-45.7945	766.4589999999999	103.792	-0.25219	0	-0.825064	-0.656265	10.9839	1.48741
1.44	-60.1517	843.314	-155.146	-0.222162	0	-0.256727	1.00825	-14.1354	2.60051	-41.3011	775.164	100.093	-0.253928	0	-0.823183	-0.628171	11.7899	1.52237
1.45	-51.6377	866.744	-152.939	-0.223603	0	-0.258145	0.913377	-15.3311	2.70522	-31.7347	790.808	96.8865	-0.256395	0	-0.820981	-0.500979	12.4841	1.5295
1.46	-45.2069	879.735	-149.943	-0.22429	0	-0.259581	0.834477	-16.2391	2.7678	-23.378	802.758	97.7989	-0.258193	0	-0.819306	-0.36572	12.5582	1.52994
